#!OML:ASF F:\VICON\USERDATA\INSTALL\rory3\rory3.ASF
:FULLY-SPECIFIED
:DEGREES
388
root 1.89281 15.9475 -7.09455 17.0194 22.0646 1.2593
lowerback -4.6437 -4.43215 7.99953
upperback -7.48122 -5.86035 2.77199
thorax -5.76809 -3.2568 -1.48268
lowerneck -18.0392 -2.53561 -1.39851
upperneck 39.3648 -4.51277 2.61586
head 17.6947 -1.61413 0.564999
rclavicle -1.68731e-013 -3.73715e-014
rhumerus 294.789 41.9671 -435.218
rradius 76.8379
rwrist -17.4461
rhand 38.8174 -2.46561
rfingers 7.12502
rthumb 61.4078 -14.6779
lclavicle -1.68731e-013 -3.73715e-014
lhumerus 2.78991 -23.0397 52.278
lradius 30.0306
lwrist -1.05413
lhand 4.00625 31.2923
lfingers 7.12502
lthumb 29.4217 58.9827
rfemur -42.1246 33.4146 384.807
rtibia 49.9215
rfoot 161.05 161.953
rtoes 26.5605
lfemur -56.0945 -17.6128 12.8531
ltibia 46.1574
lfoot -244.133 -172.949
ltoes 41.1803
389
root 1.94617 15.9424 -7.02215 17.5166 18.6559 1.37226
lowerback -4.27776 -4.32041 8.24818
upperback -7.54531 -5.67905 2.82232
thorax -6.05279 -3.19084 -1.5312
lowerneck -17.5293 -1.81082 -0.81865
upperneck 38.8867 -3.51288 2.35516
head 17.2379 -1.18582 0.538097
rclavicle 2.52953e-014 -5.40694e-014
rhumerus 293.696 42.5285 -437.16
rradius 80.4265
rwrist -17.946
rhand 39.1188 -2.12828
rfingers 7.12502
rthumb 61.6608 -14.0382
lclavicle 2.52953e-014 -5.40694e-014
lhumerus 2.1567 -26.8904 54.8189
lradius 33.4836
lwrist 7.6528
lhand 6.1419 31.324
lfingers 7.12502
lthumb 31.4585 58.6371
rfemur -42.4363 35.9066 383.758
rtibia 50.0087
rfoot 160.896 162.328
rtoes 27.2769
lfemur -57.0828 -15.349 11.2807
ltibia 46.0826
lfoot -239.23 -169.631
ltoes 39.7885
390
root 2.00539 15.9546 -6.95073 18.2385 14.93 1.92613
lowerback -3.93584 -4.19562 8.04356
upperback -7.54031 -5.49234 2.74624
thorax -6.20705 -3.0979 -1.477
lowerneck -17.0772 -1.29305 -0.331848
upperneck 37.9567 -2.78871 2.09826
head 16.587 -0.884811 0.466378
rclavicle 7.40473e-015 9.54166e-015
rhumerus 293.195 43.1973 -438.829
rradius 84.0463
rwrist -18.1994
rhand 39.3673 -1.77173
rfingers 7.12502
rthumb 61.8687 -13.4282
lclavicle 7.40473e-015 9.54166e-015
lhumerus 1.7174 -30.7458 57.14
lradius 36.8812
lwrist 15.4215
lhand 8.13692 30.0782
lfingers 7.12502
lthumb 33.3572 57.0023
rfemur -42.8986 37.8869 382.114
rtibia 49.9711
rfoot 161.236 163.121
rtoes 25.5564
lfemur -58.1883 -14.0427 9.74202
ltibia 45.9564
lfoot -234.425 -167.318
ltoes 38.5492
391
root 2.07509 15.9786 -6.87283 18.8378 10.8192 2.53442
lowerback -3.67182 -3.96932 7.74801
upperback -7.3058 -5.19772 2.57042
thorax -6.05904 -2.93697 -1.50497
lowerneck -17.9492 -0.577128 0.399172
upperneck 37.744 -1.8397 1.70747
head 16.6594 -0.452797 0.333723
rclavicle -1.02473e-013 3.18055e-014
rhumerus 293.542 43.7095 -439.941
rradius 87.6773
rwrist -18.1174
rhand 40.5873 -1.99572
rfingers 7.12502
rthumb 62.8802 -12.3488
lclavicle -1.02473e-013 3.18055e-014
lhumerus 1.70252 -34.9969 58.8976
lradius 40.5884
lwrist 22.9131
lhand 8.61738 26.8532
lfingers 7.12502
lthumb 33.8138 53.6781
rfemur -43.1361 39.145 380.527
rtibia 49.8515
rfoot 161.549 164.894
rtoes 23.066
lfemur -59.1104 -13.2283 8.29042
ltibia 45.7928
lfoot -229.413 -164.752
ltoes 36.8756
392
root 2.15563 16.0152 -6.78268 19.1068 6.75982 2.70504
lowerback -3.09926 -3.77501 7.97769
upperback -7.27522 -4.89519 2.49446
thorax -6.35653 -2.81205 -1.67601
lowerneck -17.9535 0.0458702 0.443484
upperneck 37.6488 -0.978334 1.81007
head 16.6008 -0.0918095 0.530943
rclavicle 2.21645e-014 2.22639e-014
rhumerus 293.503 44.3008 -441.158
rradius 91.5667
rwrist -18.0372
rhand 41.9493 -2.14086
rfingers 7.12502
rthumb 63.99 -10.9144
lclavicle 2.21645e-014 2.22639e-014
lhumerus 0.759232 -39.1726 61.0299
lradius 44.8169
lwrist 29.7167
lhand 14.8529 28.6121
lfingers 7.12502
lthumb 39.7132 53.9241
rfemur -42.8121 39.8667 379.742
rtibia 49.6259
rfoot 161.722 167.218
rtoes 22.7004
lfemur -59.8939 -12.8185 7.43337
ltibia 45.6273
lfoot -222.902 -160.16
ltoes 32.3952
393
root 2.23346 16.0635 -6.71203 19.5802 3.2121 2.6986
lowerback -2.58147 -3.81925 8.45615
upperback -7.11398 -4.91405 2.51268
thorax -6.53007 -2.85101 -1.8832
lowerneck -18.5826 0.653305 0.818963
upperneck 37.6281 -0.164152 1.62443
head 16.7372 0.257998 0.536033
rclavicle 3.07122e-014 -5.725e-014
rhumerus 294.547 44.8941 -441.784
rradius 95.5426
rwrist -18.0612
rhand 42.9856 -2.39661
rfingers 7.12502
rthumb 64.8191 -9.87184
lclavicle 3.07122e-014 -5.725e-014
lhumerus 0.231305 -43.1395 62.5752
lradius 49.1903
lwrist 36.5643
lhand 18.8649 28.1031
lfingers 7.12502
lthumb 43.4762 52.1786
rfemur -42.8049 39.8638 379.175
rtibia 49.3687
rfoot 162.271 169.466
rtoes 22.614
lfemur -61.2084 -12.5885 7.03873
ltibia 45.4617
lfoot -213.652 -154.596
ltoes 22.6583
394
root 2.31749 16.134 -6.62858 20.0292 -1.15456 2.57983
lowerback -1.86222 -3.61821 8.87276
upperback -7.10176 -4.57232 2.45918
thorax -6.94291 -2.72165 -2.1294
lowerneck -18.8778 1.13082 1.18831
upperneck 37.7489 0.458046 1.41308
head 16.8735 0.521373 0.4963
rclavicle -1.36167e-014 -6.36111e-014
rhumerus 295.416 45.6057 -442.658
rradius 99.2413
rwrist -17.952
rhand 43.1856 -2.48583
rfingers 7.12502
rthumb 64.9775 -9.70018
lclavicle -1.36167e-014 -6.36111e-014
lhumerus -0.80466 -46.7684 64.5927
lradius 53.3979
lwrist 43.2724
lhand 21.6538 26.5187
lfingers 7.12502
lthumb 46.0725 49.583
rfemur -42.7857 39.9588 378.594
rtibia 49.0276
rfoot 163.268 172.012
rtoes 21.5417
lfemur -62.0374 -12.8504 7.16171
ltibia 45.3938
lfoot -205.07 -151.515
ltoes 11.3129
395
root 2.40352 16.2113 -6.53111 20.4893 -6.19177 2.40271
lowerback -1.06573 -3.19476 8.97346
upperback -7.04018 -3.92842 2.40268
thorax -7.27774 -2.4221 -2.23527
lowerneck -18.7447 1.58269 1.54029
upperneck 37.4784 1.08627 1.14946
head 16.7006 0.776147 0.430072
rclavicle 3.49861e-014 2.8625e-014
rhumerus 296.827 46.0937 -443.019
rradius 102.796
rwrist -17.734
rhand 42.8275 -2.0468
rfingers 7.12502
rthumb 64.6935 -9.72577
lclavicle 3.49861e-014 2.8625e-014
lhumerus -1.70865 -50.1902 66.7319
lradius 57.3105
lwrist 49.557
lhand 21.8237 23.0212
lfingers 7.12502
lthumb 46.23 46.0193
rfemur -42.9054 40.1659 377.847
rtibia 48.663
rfoot 164.459 175.141
rtoes 22.1816
lfemur -62.5991 -13.6454 7.86006
ltibia 45.415
lfoot -199.268 -151.028
ltoes 2.84878
396
root 2.50047 16.2933 -6.42415 20.8761 -11.5773 2.07017
lowerback -0.127 -2.65341 9.14726
upperback -6.66092 -3.12765 2.23822
thorax -7.34026 -2.03503 -2.52813
lowerneck -18.8624 1.97815 1.84587
upperneck 36.8733 1.6166 0.970033
head 16.4219 0.999205 0.389853
rclavicle -1.25234e-014 2.54444e-014
rhumerus 299.355 45.9757 -442.49
rradius 106.603
rwrist -17.3225
rhand 42.2929 -1.60639
rfingers 7.12502
rthumb 64.2665 -9.95904
lclavicle -1.25234e-014 2.54444e-014
lhumerus -1.20827 -54.5403 67.3366
lradius 61.2721
lwrist 55.8465
lhand 25.2441 21.5282
lfingers 7.12502
lthumb 49.3852 43.0679
rfemur -43.2254 40.61 376.938
rtibia 48.4091
rfoot 165.784 179.022
rtoes 23.6954
lfemur -63.0146 -14.5044 8.78547
ltibia 45.5525
lfoot -195.088 -151.685
ltoes -8.50118
397
root 2.60166 16.3943 -6.29273 20.9977 -17.5155 1.71178
lowerback 1.16345 -2.09416 9.22526
upperback -6.19301 -2.27166 1.96704
thorax -7.49528 -1.61803 -2.88973
lowerneck -19.157 2.36639 2.00037
upperneck 36.4052 2.10239 0.990651
head 16.2589 1.2118 0.459555
rclavicle -2.90226e-014 1.66979e-014
rhumerus 302.048 45.8337 -441.952
rradius 110.413
rwrist -16.7796
rhand 41.6829 -0.99952
rfingers 7.12502
rthumb 63.7747 -10.093
lclavicle -2.90226e-014 1.66979e-014
lhumerus -0.850611 -58.6466 67.5375
lradius 65.3848
lwrist 61.6546
lhand 26.3174 17.8786
lfingers 7.12502
lthumb 50.3678 38.906
rfemur -42.9719 41.0756 376.262
rtibia 48.1225
rfoot 167.648 182.998
rtoes 30.2703
lfemur -62.8696 -15.6455 9.64756
ltibia 45.819
lfoot -192.495 -151.941
ltoes -14.094
398
root 2.69121 16.4742 -6.21317 22.0554 -22.3077 1.77588
lowerback 1.80079 -1.98393 8.77912
upperback -6.1921 -2.08951 1.83232
thorax -7.82239 -1.5198 -2.77896
lowerneck -19.7488 2.7559 2.34279
upperneck 36.2212 2.57525 0.821223
head 16.3231 1.41564 0.420159
rclavicle -6.89783e-014 3.49861e-014
rhumerus 304.978 45.9881 -441.598
rradius 113.873
rwrist -16.3015
rhand 40.9495 -0.820359
rfingers 7.12502
rthumb 63.1775 -10.7666
lclavicle -6.89783e-014 3.49861e-014
lhumerus -1.43227 -61.5472 68.5522
lradius 69.1879
lwrist 66.1808
lhand 30.3041 17.6478
lfingers 7.12502
lthumb 53.9801 36.4992
rfemur -43.9727 40.1748 375.071
rtibia 48.0136
rfoot 169.707 185.869
rtoes 27.4176
lfemur -64.3621 -15.0527 9.56382
ltibia 46.172
lfoot -190.583 -154.68
ltoes -12.8524
